<?xml version="1.0" encoding="UTF-8" standalone="no"?>
<!DOCTYPE svg PUBLIC "-//W3C//DTD SVG 1.1//EN"
 "http://www.w3.org/Graphics/SVG/1.1/DTD/svg11.dtd">
<!-- Generated by graphviz version 2.34.0 (20130907.0111)
 -->
<!-- Title: wrldependencies Pages: 1 -->
<svg width="3747pt" height="715pt"
 viewBox="0.00 0.00 3747.00 715.00" xmlns="http://www.w3.org/2000/svg" xmlns:xlink="http://www.w3.org/1999/xlink">
<g id="graph0" class="graph" transform="scale(1 1) rotate(0) translate(4 711)">
<title>wrldependencies</title>
<polygon fill="white" stroke="white" points="-4,4 -4,-711 3743,-711 3743,4 -4,4"/>
<text text-anchor="middle" x="1869.5" y="-7.8" font-family="Times New Roman,serif" font-size="14.00">Lighthouse dependencies</text>
<!-- index.wrl -->
<g id="node1" class="node"><title>index.wrl</title>
<polygon fill="none" stroke="black" points="1867,-635 1804.75,-617 1867,-599 1929.25,-617 1867,-635"/>
<text text-anchor="middle" x="1867" y="-613.3" font-family="Times New Roman,serif" font-size="14.00">index.wrl</text>
</g>
<!-- wrl/index&#45;lod.wrl -->
<g id="node6" class="node"><title>wrl/index&#45;lod.wrl</title>
<polygon fill="none" stroke="black" points="1912.25,-563 1801.75,-563 1801.75,-527 1912.25,-527 1912.25,-563"/>
<text text-anchor="middle" x="1857" y="-541.3" font-family="Times New Roman,serif" font-size="14.00">wrl/index&#45;lod.wrl</text>
</g>
<!-- index.wrl&#45;&gt;wrl/index&#45;lod.wrl -->
<g id="edge3" class="edge"><title>index.wrl&#45;&gt;wrl/index&#45;lod.wrl</title>
<path fill="none" stroke="black" d="M1864.63,-599.411C1863.53,-591.708 1862.19,-582.341 1860.95,-573.616"/>
<polygon fill="black" stroke="black" points="1864.37,-572.851 1859.49,-563.447 1857.44,-573.841 1864.37,-572.851"/>
</g>
<!-- index&#45;fps.wrl -->
<g id="node2" class="node"><title>index&#45;fps.wrl</title>
<polygon fill="none" stroke="black" points="1926,-707 1843.41,-689 1926,-671 2008.59,-689 1926,-707"/>
<text text-anchor="middle" x="1926" y="-685.3" font-family="Times New Roman,serif" font-size="14.00">index&#45;fps.wrl</text>
</g>
<!-- index&#45;fps.wrl&#45;&gt;index.wrl -->
<g id="edge2" class="edge"><title>index&#45;fps.wrl&#45;&gt;index.wrl</title>
<path fill="none" stroke="black" d="M1913.78,-673.496C1905.6,-663.795 1894.69,-650.85 1885.46,-639.903"/>
<polygon fill="black" stroke="black" points="1887.93,-637.398 1878.81,-632.008 1882.58,-641.91 1887.93,-637.398"/>
</g>
<!-- wrl/fps.wrl -->
<g id="node13" class="node"><title>wrl/fps.wrl</title>
<polygon fill="none" stroke="black" points="2024.25,-635 1947.75,-635 1947.75,-599 2024.25,-599 2024.25,-635"/>
<text text-anchor="middle" x="1986" y="-613.3" font-family="Times New Roman,serif" font-size="14.00">wrl/fps.wrl</text>
</g>
<!-- index&#45;fps.wrl&#45;&gt;wrl/fps.wrl -->
<g id="edge1" class="edge"><title>index&#45;fps.wrl&#45;&gt;wrl/fps.wrl</title>
<path fill="none" stroke="black" d="M1938.43,-673.496C1945.96,-664.712 1955.77,-653.268 1964.52,-643.055"/>
<polygon fill="black" stroke="black" points="1967.4,-645.074 1971.25,-635.204 1962.09,-640.519 1967.4,-645.074"/>
</g>
<!-- index&#45;nolod.wrl -->
<g id="node3" class="node"><title>index&#45;nolod.wrl</title>
<polygon fill="none" stroke="black" points="1691,-635 1595.61,-617 1691,-599 1786.39,-617 1691,-635"/>
<text text-anchor="middle" x="1691" y="-613.3" font-family="Times New Roman,serif" font-size="14.00">index&#45;nolod.wrl</text>
</g>
<!-- wrl/index&#45;nolod.wrl -->
<g id="node7" class="node"><title>wrl/index&#45;nolod.wrl</title>
<polygon fill="none" stroke="black" points="1773.25,-563 1648.75,-563 1648.75,-527 1773.25,-527 1773.25,-563"/>
<text text-anchor="middle" x="1711" y="-541.3" font-family="Times New Roman,serif" font-size="14.00">wrl/index&#45;nolod.wrl</text>
</g>
<!-- index&#45;nolod.wrl&#45;&gt;wrl/index&#45;nolod.wrl -->
<g id="edge4" class="edge"><title>index&#45;nolod.wrl&#45;&gt;wrl/index&#45;nolod.wrl</title>
<path fill="none" stroke="black" d="M1695.64,-599.765C1697.92,-591.783 1700.73,-581.953 1703.32,-572.89"/>
<polygon fill="black" stroke="black" points="1706.73,-573.701 1706.11,-563.124 1699.99,-571.778 1706.73,-573.701"/>
</g>
<!-- wrl/bell.wrl -->
<g id="node4" class="node"><title>wrl/bell.wrl</title>
<polygon fill="none" stroke="black" points="418,-275 340,-275 340,-239 418,-239 418,-275"/>
<text text-anchor="middle" x="379" y="-253.3" font-family="Times New Roman,serif" font-size="14.00">wrl/bell.wrl</text>
</g>
<!-- wrl/index.wrl -->
<g id="node5" class="node"><title>wrl/index.wrl</title>
<polygon fill="none" stroke="black" points="1828.25,-491 1739.75,-491 1739.75,-455 1828.25,-455 1828.25,-491"/>
<text text-anchor="middle" x="1784" y="-469.3" font-family="Times New Roman,serif" font-size="14.00">wrl/index.wrl</text>
</g>
<!-- wrl/lighthouse.wrl -->
<g id="node15" class="node"><title>wrl/lighthouse.wrl</title>
<polygon fill="none" stroke="black" points="1841.25,-419 1726.75,-419 1726.75,-383 1841.25,-383 1841.25,-419"/>
<text text-anchor="middle" x="1784" y="-397.3" font-family="Times New Roman,serif" font-size="14.00">wrl/lighthouse.wrl</text>
</g>
<!-- wrl/index.wrl&#45;&gt;wrl/lighthouse.wrl -->
<g id="edge23" class="edge"><title>wrl/index.wrl&#45;&gt;wrl/lighthouse.wrl</title>
<path fill="none" stroke="black" stroke-width="2" d="M1784,-454.697C1784,-447.576 1784,-439.129 1784,-431.108"/>
<polygon fill="black" stroke="black" points="1784,-431.104 1780,-425.104 1784,-419.104 1788,-425.104 1784,-431.104"/>
</g>
<!-- wrl/index&#45;lod.wrl&#45;&gt;wrl/index.wrl -->
<g id="edge24" class="edge"><title>wrl/index&#45;lod.wrl&#45;&gt;wrl/index.wrl</title>
<path fill="none" stroke="black" stroke-width="2" d="M1838.96,-526.697C1830.38,-518.474 1819.96,-508.483 1810.51,-499.421"/>
<polygon fill="black" stroke="black" points="1810.5,-499.41 1803.4,-498.144 1801.84,-491.104 1808.94,-492.37 1810.5,-499.41"/>
</g>
<!-- wrl/index&#45;nolod.wrl&#45;&gt;wrl/index.wrl -->
<g id="edge25" class="edge"><title>wrl/index&#45;nolod.wrl&#45;&gt;wrl/index.wrl</title>
<path fill="none" stroke="black" stroke-width="2" d="M1729.04,-526.697C1737.62,-518.474 1748.04,-508.483 1757.49,-499.421"/>
<polygon fill="black" stroke="black" points="1757.5,-499.41 1759.06,-492.37 1766.16,-491.104 1764.6,-498.144 1757.5,-499.41"/>
</g>
<!-- wrl/balcony.wrl -->
<g id="node8" class="node"><title>wrl/balcony.wrl</title>
<polygon fill="none" stroke="black" points="596.25,-347 493.75,-347 493.75,-311 596.25,-311 596.25,-347"/>
<text text-anchor="middle" x="545" y="-325.3" font-family="Times New Roman,serif" font-size="14.00">wrl/balcony.wrl</text>
</g>
<!-- wrl/balcony.wrl&#45;&gt;wrl/bell.wrl -->
<g id="edge5" class="edge"><title>wrl/balcony.wrl&#45;&gt;wrl/bell.wrl</title>
<path fill="none" stroke="black" d="M504.392,-310.876C481.174,-301.085 451.907,-288.744 427.488,-278.447"/>
<polygon fill="black" stroke="black" points="428.62,-275.126 418.046,-274.465 425.9,-281.576 428.62,-275.126"/>
</g>
<!-- wrl/barrier.wrl -->
<g id="node9" class="node"><title>wrl/barrier.wrl</title>
<polygon fill="none" stroke="black" points="531.25,-275 436.75,-275 436.75,-239 531.25,-239 531.25,-275"/>
<text text-anchor="middle" x="484" y="-253.3" font-family="Times New Roman,serif" font-size="14.00">wrl/barrier.wrl</text>
</g>
<!-- wrl/balcony.wrl&#45;&gt;wrl/barrier.wrl -->
<g id="edge6" class="edge"><title>wrl/balcony.wrl&#45;&gt;wrl/barrier.wrl</title>
<path fill="none" stroke="black" d="M529.921,-310.697C522.608,-302.305 513.69,-292.07 505.665,-282.861"/>
<polygon fill="black" stroke="black" points="508.114,-280.344 498.905,-275.104 502.836,-284.943 508.114,-280.344"/>
</g>
<!-- wrl/lightroom.wrl -->
<g id="node17" class="node"><title>wrl/lightroom.wrl</title>
<polygon fill="none" stroke="black" points="662,-275 550,-275 550,-239 662,-239 662,-275"/>
<text text-anchor="middle" x="606" y="-253.3" font-family="Times New Roman,serif" font-size="14.00">wrl/lightroom.wrl</text>
</g>
<!-- wrl/balcony.wrl&#45;&gt;wrl/lightroom.wrl -->
<g id="edge29" class="edge"><title>wrl/balcony.wrl&#45;&gt;wrl/lightroom.wrl</title>
<path fill="none" stroke="black" stroke-width="2" d="M560.079,-310.697C567.022,-302.728 575.413,-293.1 583.113,-284.264"/>
<polygon fill="black" stroke="black" points="583.211,-284.151 584.137,-277 591.095,-275.104 590.169,-282.256 583.211,-284.151"/>
</g>
<!-- blend/barrier.wrl -->
<g id="node30" class="node"><title>blend/barrier.wrl</title>
<ellipse fill="none" stroke="black" cx="70" cy="-185" rx="70.2909" ry="18"/>
<text text-anchor="middle" x="70" y="-181.3" font-family="Times New Roman,serif" font-size="14.00">blend/barrier.wrl</text>
</g>
<!-- wrl/barrier.wrl&#45;&gt;blend/barrier.wrl -->
<g id="edge7" class="edge"><title>wrl/barrier.wrl&#45;&gt;blend/barrier.wrl</title>
<path fill="none" stroke="black" d="M436.562,-241.229C433.34,-240.419 430.131,-239.665 427,-239 305.132,-213.112 271.783,-224.123 149,-203 142.921,-201.954 136.599,-200.766 130.298,-199.515"/>
<polygon fill="black" stroke="black" points="130.949,-196.076 120.451,-197.51 129.552,-202.935 130.949,-196.076"/>
</g>
<!-- wrl/barsquare.wrl -->
<g id="node10" class="node"><title>wrl/barsquare.wrl</title>
<polygon fill="none" stroke="black" points="311.25,-59 198.75,-59 198.75,-23 311.25,-23 311.25,-59"/>
<text text-anchor="middle" x="255" y="-37.3" font-family="Times New Roman,serif" font-size="14.00">wrl/barsquare.wrl</text>
</g>
<!-- wrl/bedroom.wrl -->
<g id="node11" class="node"><title>wrl/bedroom.wrl</title>
<polygon fill="none" stroke="black" points="1839,-347 1729,-347 1729,-311 1839,-311 1839,-347"/>
<text text-anchor="middle" x="1784" y="-325.3" font-family="Times New Roman,serif" font-size="14.00">wrl/bedroom.wrl</text>
</g>
<!-- wrl/ladyBugLods.wrl -->
<g id="node14" class="node"><title>wrl/ladyBugLods.wrl</title>
<polygon fill="none" stroke="black" points="1220,-275 1086,-275 1086,-239 1220,-239 1220,-275"/>
<text text-anchor="middle" x="1153" y="-253.3" font-family="Times New Roman,serif" font-size="14.00">wrl/ladyBugLods.wrl</text>
</g>
<!-- wrl/bedroom.wrl&#45;&gt;wrl/ladyBugLods.wrl -->
<g id="edge30" class="edge"><title>wrl/bedroom.wrl&#45;&gt;wrl/ladyBugLods.wrl</title>
<path fill="none" stroke="black" stroke-width="2" d="M1728.96,-325.028C1631.04,-319.245 1419.97,-304.543 1232.1,-275.371"/>
<polygon fill="black" stroke="black" points="1231.9,-275.34 1225.35,-278.359 1220.05,-273.475 1226.6,-270.456 1231.9,-275.34"/>
</g>
<!-- blend/apartment.wrl -->
<g id="node28" class="node"><title>blend/apartment.wrl</title>
<ellipse fill="none" stroke="black" cx="1321" cy="-257" rx="82.3139" ry="18"/>
<text text-anchor="middle" x="1321" y="-253.3" font-family="Times New Roman,serif" font-size="14.00">blend/apartment.wrl</text>
</g>
<!-- wrl/bedroom.wrl&#45;&gt;blend/apartment.wrl -->
<g id="edge12" class="edge"><title>wrl/bedroom.wrl&#45;&gt;blend/apartment.wrl</title>
<path fill="none" stroke="black" d="M1728.74,-320.885C1655.99,-311.344 1524.16,-293.458 1412,-275 1405.02,-273.852 1397.75,-272.596 1390.5,-271.304"/>
<polygon fill="black" stroke="black" points="1391.12,-267.858 1380.65,-269.525 1389.87,-274.746 1391.12,-267.858"/>
</g>
<!-- blend/balconyPlatform.wrl -->
<g id="node29" class="node"><title>blend/balconyPlatform.wrl</title>
<ellipse fill="none" stroke="black" cx="1528" cy="-257" rx="106.386" ry="18"/>
<text text-anchor="middle" x="1528" y="-253.3" font-family="Times New Roman,serif" font-size="14.00">blend/balconyPlatform.wrl</text>
</g>
<!-- wrl/bedroom.wrl&#45;&gt;blend/balconyPlatform.wrl -->
<g id="edge13" class="edge"><title>wrl/bedroom.wrl&#45;&gt;blend/balconyPlatform.wrl</title>
<path fill="none" stroke="black" d="M1728.77,-312.897C1688.35,-301.846 1633.44,-286.832 1591.27,-275.299"/>
<polygon fill="black" stroke="black" points="1591.95,-271.858 1581.38,-272.596 1590.1,-278.61 1591.95,-271.858"/>
</g>
<!-- blend/bed.wrl -->
<g id="node32" class="node"><title>blend/bed.wrl</title>
<ellipse fill="none" stroke="black" cx="1713" cy="-257" rx="60.1672" ry="18"/>
<text text-anchor="middle" x="1713" y="-253.3" font-family="Times New Roman,serif" font-size="14.00">blend/bed.wrl</text>
</g>
<!-- wrl/bedroom.wrl&#45;&gt;blend/bed.wrl -->
<g id="edge8" class="edge"><title>wrl/bedroom.wrl&#45;&gt;blend/bed.wrl</title>
<path fill="none" stroke="black" d="M1766.45,-310.697C1757.64,-302.007 1746.82,-291.343 1737.23,-281.887"/>
<polygon fill="black" stroke="black" points="1739.44,-279.151 1729.86,-274.622 1734.52,-284.135 1739.44,-279.151"/>
</g>
<!-- blend/glass.wrl -->
<g id="node37" class="node"><title>blend/glass.wrl</title>
<ellipse fill="none" stroke="black" cx="1856" cy="-257" rx="64.4914" ry="18"/>
<text text-anchor="middle" x="1856" y="-253.3" font-family="Times New Roman,serif" font-size="14.00">blend/glass.wrl</text>
</g>
<!-- wrl/bedroom.wrl&#45;&gt;blend/glass.wrl -->
<g id="edge11" class="edge"><title>wrl/bedroom.wrl&#45;&gt;blend/glass.wrl</title>
<path fill="none" stroke="black" d="M1801.8,-310.697C1810.82,-301.921 1821.92,-291.132 1831.72,-281.606"/>
<polygon fill="black" stroke="black" points="1834.17,-284.103 1838.9,-274.622 1829.29,-279.084 1834.17,-284.103"/>
</g>
<!-- blend/library.wrl -->
<g id="node42" class="node"><title>blend/library.wrl</title>
<ellipse fill="none" stroke="black" cx="2009" cy="-257" rx="69.3156" ry="18"/>
<text text-anchor="middle" x="2009" y="-253.3" font-family="Times New Roman,serif" font-size="14.00">blend/library.wrl</text>
</g>
<!-- wrl/bedroom.wrl&#45;&gt;blend/library.wrl -->
<g id="edge10" class="edge"><title>wrl/bedroom.wrl&#45;&gt;blend/library.wrl</title>
<path fill="none" stroke="black" d="M1838.75,-310.966C1874.66,-299.794 1921.34,-285.273 1956.73,-274.261"/>
<polygon fill="black" stroke="black" points="1957.89,-277.566 1966.4,-271.254 1955.81,-270.882 1957.89,-277.566"/>
</g>
<!-- blend/PlatformWithHole.wrl -->
<g id="node44" class="node"><title>blend/PlatformWithHole.wrl</title>
<ellipse fill="none" stroke="black" cx="2209" cy="-257" rx="112.16" ry="18"/>
<text text-anchor="middle" x="2209" y="-253.3" font-family="Times New Roman,serif" font-size="14.00">blend/PlatformWithHole.wrl</text>
</g>
<!-- wrl/bedroom.wrl&#45;&gt;blend/PlatformWithHole.wrl -->
<g id="edge14" class="edge"><title>wrl/bedroom.wrl&#45;&gt;blend/PlatformWithHole.wrl</title>
<path fill="none" stroke="black" d="M1839.13,-318.92C1911.32,-307.03 2038.65,-286.058 2123.43,-272.094"/>
<polygon fill="black" stroke="black" points="2124.25,-275.506 2133.55,-270.427 2123.11,-268.599 2124.25,-275.506"/>
</g>
<!-- blend/stair.wrl -->
<g id="node46" class="node"><title>blend/stair.wrl</title>
<ellipse fill="none" stroke="black" cx="2401" cy="-257" rx="61.6163" ry="18"/>
<text text-anchor="middle" x="2401" y="-253.3" font-family="Times New Roman,serif" font-size="14.00">blend/stair.wrl</text>
</g>
<!-- wrl/bedroom.wrl&#45;&gt;blend/stair.wrl -->
<g id="edge9" class="edge"><title>wrl/bedroom.wrl&#45;&gt;blend/stair.wrl</title>
<path fill="none" stroke="black" d="M1839.36,-325.162C1938.35,-319.524 2152,-304.802 2330,-275 2335.47,-274.084 2341.14,-272.985 2346.79,-271.792"/>
<polygon fill="black" stroke="black" points="2347.87,-275.137 2356.88,-269.562 2346.36,-268.302 2347.87,-275.137"/>
</g>
<!-- wrl/clock.wrl -->
<g id="node12" class="node"><title>wrl/clock.wrl</title>
<polygon fill="none" stroke="black" points="247.25,-203 158.75,-203 158.75,-167 247.25,-167 247.25,-203"/>
<text text-anchor="middle" x="203" y="-181.3" font-family="Times New Roman,serif" font-size="14.00">wrl/clock.wrl</text>
</g>
<!-- blend/ladybug.wrl -->
<g id="node40" class="node"><title>blend/ladybug.wrl</title>
<ellipse fill="none" stroke="black" cx="1153" cy="-185" rx="75.0904" ry="18"/>
<text text-anchor="middle" x="1153" y="-181.3" font-family="Times New Roman,serif" font-size="14.00">blend/ladybug.wrl</text>
</g>
<!-- wrl/ladyBugLods.wrl&#45;&gt;blend/ladybug.wrl -->
<g id="edge15" class="edge"><title>wrl/ladyBugLods.wrl&#45;&gt;blend/ladybug.wrl</title>
<path fill="none" stroke="black" d="M1153,-238.697C1153,-230.983 1153,-221.712 1153,-213.112"/>
<polygon fill="black" stroke="black" points="1156.5,-213.104 1153,-203.104 1149.5,-213.104 1156.5,-213.104"/>
</g>
<!-- blend/ladybug_lod2.wrl -->
<g id="node41" class="node"><title>blend/ladybug_lod2.wrl</title>
<ellipse fill="none" stroke="black" cx="1343" cy="-185" rx="96.2631" ry="18"/>
<text text-anchor="middle" x="1343" y="-181.3" font-family="Times New Roman,serif" font-size="14.00">blend/ladybug_lod2.wrl</text>
</g>
<!-- wrl/ladyBugLods.wrl&#45;&gt;blend/ladybug_lod2.wrl -->
<g id="edge16" class="edge"><title>wrl/ladyBugLods.wrl&#45;&gt;blend/ladybug_lod2.wrl</title>
<path fill="none" stroke="black" d="M1199.48,-238.876C1227.51,-228.549 1263.25,-215.382 1292.05,-204.772"/>
<polygon fill="black" stroke="black" points="1293.35,-208.021 1301.53,-201.279 1290.93,-201.452 1293.35,-208.021"/>
</g>
<!-- wrl/lighthouse.wrl&#45;&gt;wrl/balcony.wrl -->
<g id="edge27" class="edge"><title>wrl/lighthouse.wrl&#45;&gt;wrl/balcony.wrl</title>
<path fill="none" stroke="black" stroke-width="2" d="M1726.73,-396.764C1521.52,-385.171 823.905,-345.757 608.728,-333.6"/>
<polygon fill="black" stroke="black" points="608.432,-333.584 602.216,-337.239 596.451,-332.907 602.667,-329.252 608.432,-333.584"/>
</g>
<!-- wrl/lighthouse.wrl&#45;&gt;wrl/bedroom.wrl -->
<g id="edge28" class="edge"><title>wrl/lighthouse.wrl&#45;&gt;wrl/bedroom.wrl</title>
<path fill="none" stroke="black" stroke-width="2" d="M1784,-382.697C1784,-375.576 1784,-367.129 1784,-359.108"/>
<polygon fill="black" stroke="black" points="1784,-359.104 1780,-353.104 1784,-347.104 1788,-353.104 1784,-359.104"/>
</g>
<!-- wrl/lighthouse&#45;body.wrl -->
<g id="node16" class="node"><title>wrl/lighthouse&#45;body.wrl</title>
<polygon fill="none" stroke="black" points="2343.25,-347 2194.75,-347 2194.75,-311 2343.25,-311 2343.25,-347"/>
<text text-anchor="middle" x="2269" y="-325.3" font-family="Times New Roman,serif" font-size="14.00">wrl/lighthouse&#45;body.wrl</text>
</g>
<!-- wrl/lighthouse.wrl&#45;&gt;wrl/lighthouse&#45;body.wrl -->
<g id="edge26" class="edge"><title>wrl/lighthouse.wrl&#45;&gt;wrl/lighthouse&#45;body.wrl</title>
<path fill="none" stroke="black" stroke-width="2" d="M1841.54,-391.695C1925.97,-379.51 2084.03,-356.696 2182.49,-342.486"/>
<polygon fill="black" stroke="black" points="2182.61,-342.468 2187.98,-337.652 2194.49,-340.754 2189.12,-345.57 2182.61,-342.468"/>
</g>
<!-- wrl/barround.wrl -->
<g id="node27" class="node"><title>wrl/barround.wrl</title>
<polygon fill="none" stroke="black" points="2591,-275 2481,-275 2481,-239 2591,-239 2591,-275"/>
<text text-anchor="middle" x="2536" y="-253.3" font-family="Times New Roman,serif" font-size="14.00">wrl/barround.wrl</text>
</g>
<!-- wrl/lighthouse&#45;body.wrl&#45;&gt;wrl/barround.wrl -->
<g id="edge35" class="edge"><title>wrl/lighthouse&#45;body.wrl&#45;&gt;wrl/barround.wrl</title>
<path fill="none" stroke="black" stroke-width="2" d="M2333.97,-310.966C2374.95,-300.224 2427.73,-286.385 2469.07,-275.547"/>
<polygon fill="black" stroke="black" points="2469.07,-275.547 2473.86,-270.156 2480.68,-272.503 2475.89,-277.894 2469.07,-275.547"/>
</g>
<!-- wrl/lightroom.wrl&#45;&gt;wrl/clock.wrl -->
<g id="edge20" class="edge"><title>wrl/lightroom.wrl&#45;&gt;wrl/clock.wrl</title>
<path fill="none" stroke="black" d="M549.939,-241.049C546.585,-240.314 543.254,-239.623 540,-239 418.636,-215.746 382.668,-229.408 257.31,-202.807"/>
<polygon fill="black" stroke="black" points="257.842,-199.341 247.327,-200.645 256.36,-206.182 257.842,-199.341"/>
</g>
<!-- wrl/lightroom&#45;cage.wrl -->
<g id="node18" class="node"><title>wrl/lightroom&#45;cage.wrl</title>
<polygon fill="none" stroke="black" points="408,-203 266,-203 266,-167 408,-167 408,-203"/>
<text text-anchor="middle" x="337" y="-181.3" font-family="Times New Roman,serif" font-size="14.00">wrl/lightroom&#45;cage.wrl</text>
</g>
<!-- wrl/lightroom.wrl&#45;&gt;wrl/lightroom&#45;cage.wrl -->
<g id="edge31" class="edge"><title>wrl/lightroom.wrl&#45;&gt;wrl/lightroom&#45;cage.wrl</title>
<path fill="none" stroke="black" stroke-width="2" d="M549.936,-241.411C510.585,-231.171 457.464,-217.347 414.124,-206.069"/>
<polygon fill="black" stroke="black" points="414.081,-206.058 407.267,-208.418 402.468,-203.036 409.282,-200.676 414.081,-206.058"/>
</g>
<!-- wrl/lightroom&#45;chandelier.wrl -->
<g id="node20" class="node"><title>wrl/lightroom&#45;chandelier.wrl</title>
<polygon fill="none" stroke="black" points="599.25,-203 426.75,-203 426.75,-167 599.25,-167 599.25,-203"/>
<text text-anchor="middle" x="513" y="-181.3" font-family="Times New Roman,serif" font-size="14.00">wrl/lightroom&#45;chandelier.wrl</text>
</g>
<!-- wrl/lightroom.wrl&#45;&gt;wrl/lightroom&#45;chandelier.wrl -->
<g id="edge17" class="edge"><title>wrl/lightroom.wrl&#45;&gt;wrl/lightroom&#45;chandelier.wrl</title>
<path fill="none" stroke="black" d="M583.011,-238.697C571.186,-229.796 556.608,-218.823 543.821,-209.199"/>
<polygon fill="black" stroke="black" points="545.819,-206.322 535.724,-203.104 541.609,-211.915 545.819,-206.322"/>
</g>
<!-- wrl/lightroom&#45;masonry.wrl -->
<g id="node21" class="node"><title>wrl/lightroom&#45;masonry.wrl</title>
<polygon fill="none" stroke="black" points="782,-203 618,-203 618,-167 782,-167 782,-203"/>
<text text-anchor="middle" x="700" y="-181.3" font-family="Times New Roman,serif" font-size="14.00">wrl/lightroom&#45;masonry.wrl</text>
</g>
<!-- wrl/lightroom.wrl&#45;&gt;wrl/lightroom&#45;masonry.wrl -->
<g id="edge18" class="edge"><title>wrl/lightroom.wrl&#45;&gt;wrl/lightroom&#45;masonry.wrl</title>
<path fill="none" stroke="black" d="M629.236,-238.697C641.188,-229.796 655.923,-218.823 668.847,-209.199"/>
<polygon fill="black" stroke="black" points="671.101,-211.884 677.031,-203.104 666.92,-206.27 671.101,-211.884"/>
</g>
<!-- wrl/lightroom&#45;roof.wrl -->
<g id="node22" class="node"><title>wrl/lightroom&#45;roof.wrl</title>
<polygon fill="none" stroke="black" points="940,-203 800,-203 800,-167 940,-167 940,-203"/>
<text text-anchor="middle" x="870" y="-181.3" font-family="Times New Roman,serif" font-size="14.00">wrl/lightroom&#45;roof.wrl</text>
</g>
<!-- wrl/lightroom.wrl&#45;&gt;wrl/lightroom&#45;roof.wrl -->
<g id="edge19" class="edge"><title>wrl/lightroom.wrl&#45;&gt;wrl/lightroom&#45;roof.wrl</title>
<path fill="none" stroke="black" d="M662.311,-241.069C701.227,-230.751 753.399,-216.917 795.716,-205.696"/>
<polygon fill="black" stroke="black" points="796.646,-209.071 805.415,-203.125 794.852,-202.305 796.646,-209.071"/>
</g>
<!-- wrl/winding.wrl -->
<g id="node26" class="node"><title>wrl/winding.wrl</title>
<polygon fill="none" stroke="black" points="1060,-203 958,-203 958,-167 1060,-167 1060,-203"/>
<text text-anchor="middle" x="1009" y="-181.3" font-family="Times New Roman,serif" font-size="14.00">wrl/winding.wrl</text>
</g>
<!-- wrl/lightroom.wrl&#45;&gt;wrl/winding.wrl -->
<g id="edge21" class="edge"><title>wrl/lightroom.wrl&#45;&gt;wrl/winding.wrl</title>
<path fill="none" stroke="black" d="M662.235,-249.464C728.435,-241.29 841.794,-225.799 947.812,-203.122"/>
<polygon fill="black" stroke="black" points="948.685,-206.514 957.718,-200.977 947.203,-199.673 948.685,-206.514"/>
</g>
<!-- wrl/lightroom&#45;window.wrl -->
<g id="node23" class="node"><title>wrl/lightroom&#45;window.wrl</title>
<polygon fill="none" stroke="black" points="417.25,-131 256.75,-131 256.75,-95 417.25,-95 417.25,-131"/>
<text text-anchor="middle" x="337" y="-109.3" font-family="Times New Roman,serif" font-size="14.00">wrl/lightroom&#45;window.wrl</text>
</g>
<!-- wrl/lightroom&#45;cage.wrl&#45;&gt;wrl/lightroom&#45;window.wrl -->
<g id="edge32" class="edge"><title>wrl/lightroom&#45;cage.wrl&#45;&gt;wrl/lightroom&#45;window.wrl</title>
<path fill="none" stroke="black" stroke-width="2" d="M337,-166.697C337,-159.576 337,-151.129 337,-143.108"/>
<polygon fill="black" stroke="black" points="337,-143.104 333,-137.104 337,-131.104 341,-137.104 337,-143.104"/>
</g>
<!-- wrl/lightroom&#45;glass&#45;panel.wrl -->
<g id="node19" class="node"><title>wrl/lightroom&#45;glass&#45;panel.wrl</title>
<polygon fill="none" stroke="black" points="508,-59 330,-59 330,-23 508,-23 508,-59"/>
<text text-anchor="middle" x="419" y="-37.3" font-family="Times New Roman,serif" font-size="14.00">wrl/lightroom&#45;glass&#45;panel.wrl</text>
</g>
<!-- wrl/reflector.wrl -->
<g id="node24" class="node"><title>wrl/reflector.wrl</title>
<polygon fill="none" stroke="black" points="565.25,-131 460.75,-131 460.75,-95 565.25,-95 565.25,-131"/>
<text text-anchor="middle" x="513" y="-109.3" font-family="Times New Roman,serif" font-size="14.00">wrl/reflector.wrl</text>
</g>
<!-- wrl/lightroom&#45;chandelier.wrl&#45;&gt;wrl/reflector.wrl -->
<g id="edge22" class="edge"><title>wrl/lightroom&#45;chandelier.wrl&#45;&gt;wrl/reflector.wrl</title>
<path fill="none" stroke="black" d="M513,-166.697C513,-158.983 513,-149.712 513,-141.112"/>
<polygon fill="black" stroke="black" points="516.5,-141.104 513,-131.104 509.5,-141.104 516.5,-141.104"/>
</g>
<!-- wrl/lightroom&#45;window.wrl&#45;&gt;wrl/barsquare.wrl -->
<g id="edge34" class="edge"><title>wrl/lightroom&#45;window.wrl&#45;&gt;wrl/barsquare.wrl</title>
<path fill="none" stroke="black" stroke-width="2" d="M316.73,-94.6966C306.999,-86.3893 295.153,-76.2771 284.451,-67.1407"/>
<polygon fill="black" stroke="black" points="284.163,-66.8955 277.003,-66.0422 275.037,-59.1043 282.197,-59.9577 284.163,-66.8955"/>
</g>
<!-- wrl/lightroom&#45;window.wrl&#45;&gt;wrl/lightroom&#45;glass&#45;panel.wrl -->
<g id="edge33" class="edge"><title>wrl/lightroom&#45;window.wrl&#45;&gt;wrl/lightroom&#45;glass&#45;panel.wrl</title>
<path fill="none" stroke="black" stroke-width="2" d="M357.27,-94.6966C367.001,-86.3893 378.847,-76.2771 389.549,-67.1407"/>
<polygon fill="black" stroke="black" points="389.837,-66.8955 391.803,-59.9577 398.963,-59.1043 396.997,-66.0422 389.837,-66.8955"/>
</g>
<!-- wrl/sea.wrl -->
<g id="node25" class="node"><title>wrl/sea.wrl</title>
<polygon fill="none" stroke="black" points="2103.25,-707 2026.75,-707 2026.75,-671 2103.25,-671 2103.25,-707"/>
<text text-anchor="middle" x="2065" y="-685.3" font-family="Times New Roman,serif" font-size="14.00">wrl/sea.wrl</text>
</g>
<!-- blend/barrier_lod2.wrl -->
<g id="node31" class="node"><title>blend/barrier_lod2.wrl</title>
<ellipse fill="none" stroke="black" cx="2212" cy="-689" rx="90.4879" ry="18"/>
<text text-anchor="middle" x="2212" y="-685.3" font-family="Times New Roman,serif" font-size="14.00">blend/barrier_lod2.wrl</text>
</g>
<!-- blend/blenderIndex.wrl -->
<g id="node33" class="node"><title>blend/blenderIndex.wrl</title>
<ellipse fill="none" stroke="black" cx="2415" cy="-689" rx="94.3628" ry="18"/>
<text text-anchor="middle" x="2415" y="-685.3" font-family="Times New Roman,serif" font-size="14.00">blend/blenderIndex.wrl</text>
</g>
<!-- blend/circled.wrl -->
<g id="node34" class="node"><title>blend/circled.wrl</title>
<ellipse fill="none" stroke="black" cx="2599" cy="-689" rx="71.2405" ry="18"/>
<text text-anchor="middle" x="2599" y="-685.3" font-family="Times New Roman,serif" font-size="14.00">blend/circled.wrl</text>
</g>
<!-- blend/entry.wrl -->
<g id="node35" class="node"><title>blend/entry.wrl</title>
<ellipse fill="none" stroke="black" cx="2753" cy="-689" rx="64.4914" ry="18"/>
<text text-anchor="middle" x="2753" y="-685.3" font-family="Times New Roman,serif" font-size="14.00">blend/entry.wrl</text>
</g>
<!-- blend/EntryTest.wrl -->
<g id="node36" class="node"><title>blend/EntryTest.wrl</title>
<ellipse fill="none" stroke="black" cx="2919" cy="-689" rx="82.3139" ry="18"/>
<text text-anchor="middle" x="2919" y="-685.3" font-family="Times New Roman,serif" font-size="14.00">blend/EntryTest.wrl</text>
</g>
<!-- blend/glass_lod2.wrl -->
<g id="node38" class="node"><title>blend/glass_lod2.wrl</title>
<ellipse fill="none" stroke="black" cx="3105" cy="-689" rx="85.19" ry="18"/>
<text text-anchor="middle" x="3105" y="-685.3" font-family="Times New Roman,serif" font-size="14.00">blend/glass_lod2.wrl</text>
</g>
<!-- blend/innerStair.wrl -->
<g id="node39" class="node"><title>blend/innerStair.wrl</title>
<ellipse fill="none" stroke="black" cx="3290" cy="-689" rx="81.3646" ry="18"/>
<text text-anchor="middle" x="3290" y="-685.3" font-family="Times New Roman,serif" font-size="14.00">blend/innerStair.wrl</text>
</g>
<!-- blend/LibraryTest.wrl -->
<g id="node43" class="node"><title>blend/LibraryTest.wrl</title>
<ellipse fill="none" stroke="black" cx="3478" cy="-689" rx="89.0632" ry="18"/>
<text text-anchor="middle" x="3478" y="-685.3" font-family="Times New Roman,serif" font-size="14.00">blend/LibraryTest.wrl</text>
</g>
<!-- blend/smeaton.wrl -->
<g id="node45" class="node"><title>blend/smeaton.wrl</title>
<ellipse fill="none" stroke="black" cx="3662" cy="-689" rx="77.0154" ry="18"/>
<text text-anchor="middle" x="3662" y="-685.3" font-family="Times New Roman,serif" font-size="14.00">blend/smeaton.wrl</text>
</g>
</g>
</svg>
