<?xml version="1.0" encoding="UTF-8" standalone="no"?>
<!DOCTYPE svg PUBLIC "-//W3C//DTD SVG 1.1//EN"
 "http://www.w3.org/Graphics/SVG/1.1/DTD/svg11.dtd">
<!-- Generated by graphviz version 2.34.0 (20130907.0111)
 -->
<!-- Title: wrldependencies Pages: 1 -->
<svg width="3542pt" height="643pt"
 viewBox="0.00 0.00 3542.00 643.00" xmlns="http://www.w3.org/2000/svg" xmlns:xlink="http://www.w3.org/1999/xlink">
<g id="graph0" class="graph" transform="scale(1 1) rotate(0) translate(4 639)">
<title>wrldependencies</title>
<polygon fill="white" stroke="white" points="-4,4 -4,-639 3538,-639 3538,4 -4,4"/>
<text text-anchor="middle" x="1767" y="-7.8" font-family="Times New Roman,serif" font-size="14.00">Lighthouse dependencies</text>
<!-- index.wrl -->
<g id="node1" class="node"><title>index.wrl</title>
<polygon fill="none" stroke="black" points="1747,-563 1679,-563 1679,-527 1747,-527 1747,-563"/>
<text text-anchor="middle" x="1713" y="-541.3" font-family="Times New Roman,serif" font-size="14.00">index.wrl</text>
</g>
<!-- wrl/index.wrl -->
<g id="node4" class="node"><title>wrl/index.wrl</title>
<polygon fill="none" stroke="black" points="1757.25,-491 1668.75,-491 1668.75,-455 1757.25,-455 1757.25,-491"/>
<text text-anchor="middle" x="1713" y="-469.3" font-family="Times New Roman,serif" font-size="14.00">wrl/index.wrl</text>
</g>
<!-- index.wrl&#45;&gt;wrl/index.wrl -->
<g id="edge3" class="edge"><title>index.wrl&#45;&gt;wrl/index.wrl</title>
<path fill="none" stroke="black" d="M1713,-526.697C1713,-518.983 1713,-509.712 1713,-501.112"/>
<polygon fill="black" stroke="black" points="1716.5,-501.104 1713,-491.104 1709.5,-501.104 1716.5,-501.104"/>
</g>
<!-- index&#45;fps.wrl -->
<g id="node2" class="node"><title>index&#45;fps.wrl</title>
<polygon fill="none" stroke="black" points="1803,-635 1713,-635 1713,-599 1803,-599 1803,-635"/>
<text text-anchor="middle" x="1758" y="-613.3" font-family="Times New Roman,serif" font-size="14.00">index&#45;fps.wrl</text>
</g>
<!-- index&#45;fps.wrl&#45;&gt;index.wrl -->
<g id="edge2" class="edge"><title>index&#45;fps.wrl&#45;&gt;index.wrl</title>
<path fill="none" stroke="black" d="M1746.88,-598.697C1741.64,-590.559 1735.3,-580.689 1729.52,-571.701"/>
<polygon fill="black" stroke="black" points="1732.35,-569.623 1724,-563.104 1726.46,-573.409 1732.35,-569.623"/>
</g>
<!-- wrl/fps.wrl -->
<g id="node10" class="node"><title>wrl/fps.wrl</title>
<polygon fill="none" stroke="black" points="1842.25,-563 1765.75,-563 1765.75,-527 1842.25,-527 1842.25,-563"/>
<text text-anchor="middle" x="1804" y="-541.3" font-family="Times New Roman,serif" font-size="14.00">wrl/fps.wrl</text>
</g>
<!-- index&#45;fps.wrl&#45;&gt;wrl/fps.wrl -->
<g id="edge1" class="edge"><title>index&#45;fps.wrl&#45;&gt;wrl/fps.wrl</title>
<path fill="none" stroke="black" d="M1769.37,-598.697C1774.72,-590.559 1781.2,-580.689 1787.11,-571.701"/>
<polygon fill="black" stroke="black" points="1790.19,-573.384 1792.76,-563.104 1784.34,-569.539 1790.19,-573.384"/>
</g>
<!-- wrl/bell.wrl -->
<g id="node3" class="node"><title>wrl/bell.wrl</title>
<polygon fill="none" stroke="black" points="418,-275 340,-275 340,-239 418,-239 418,-275"/>
<text text-anchor="middle" x="379" y="-253.3" font-family="Times New Roman,serif" font-size="14.00">wrl/bell.wrl</text>
</g>
<!-- wrl/lighthouse.wrl -->
<g id="node12" class="node"><title>wrl/lighthouse.wrl</title>
<polygon fill="none" stroke="black" points="1770.25,-419 1655.75,-419 1655.75,-383 1770.25,-383 1770.25,-419"/>
<text text-anchor="middle" x="1713" y="-397.3" font-family="Times New Roman,serif" font-size="14.00">wrl/lighthouse.wrl</text>
</g>
<!-- wrl/index.wrl&#45;&gt;wrl/lighthouse.wrl -->
<g id="edge22" class="edge"><title>wrl/index.wrl&#45;&gt;wrl/lighthouse.wrl</title>
<path fill="none" stroke="black" stroke-width="2" d="M1713,-454.697C1713,-447.576 1713,-439.129 1713,-431.108"/>
<polygon fill="black" stroke="black" points="1713,-431.104 1709,-425.104 1713,-419.104 1717,-425.104 1713,-431.104"/>
</g>
<!-- wrl/balcony.wrl -->
<g id="node5" class="node"><title>wrl/balcony.wrl</title>
<polygon fill="none" stroke="black" points="596.25,-347 493.75,-347 493.75,-311 596.25,-311 596.25,-347"/>
<text text-anchor="middle" x="545" y="-325.3" font-family="Times New Roman,serif" font-size="14.00">wrl/balcony.wrl</text>
</g>
<!-- wrl/balcony.wrl&#45;&gt;wrl/bell.wrl -->
<g id="edge4" class="edge"><title>wrl/balcony.wrl&#45;&gt;wrl/bell.wrl</title>
<path fill="none" stroke="black" d="M504.392,-310.876C481.174,-301.085 451.907,-288.744 427.488,-278.447"/>
<polygon fill="black" stroke="black" points="428.62,-275.126 418.046,-274.465 425.9,-281.576 428.62,-275.126"/>
</g>
<!-- wrl/barrier.wrl -->
<g id="node6" class="node"><title>wrl/barrier.wrl</title>
<polygon fill="none" stroke="black" points="531.25,-275 436.75,-275 436.75,-239 531.25,-239 531.25,-275"/>
<text text-anchor="middle" x="484" y="-253.3" font-family="Times New Roman,serif" font-size="14.00">wrl/barrier.wrl</text>
</g>
<!-- wrl/balcony.wrl&#45;&gt;wrl/barrier.wrl -->
<g id="edge5" class="edge"><title>wrl/balcony.wrl&#45;&gt;wrl/barrier.wrl</title>
<path fill="none" stroke="black" d="M529.921,-310.697C522.608,-302.305 513.69,-292.07 505.665,-282.861"/>
<polygon fill="black" stroke="black" points="508.114,-280.344 498.905,-275.104 502.836,-284.943 508.114,-280.344"/>
</g>
<!-- wrl/lightroom.wrl -->
<g id="node14" class="node"><title>wrl/lightroom.wrl</title>
<polygon fill="none" stroke="black" points="662,-275 550,-275 550,-239 662,-239 662,-275"/>
<text text-anchor="middle" x="606" y="-253.3" font-family="Times New Roman,serif" font-size="14.00">wrl/lightroom.wrl</text>
</g>
<!-- wrl/balcony.wrl&#45;&gt;wrl/lightroom.wrl -->
<g id="edge26" class="edge"><title>wrl/balcony.wrl&#45;&gt;wrl/lightroom.wrl</title>
<path fill="none" stroke="black" stroke-width="2" d="M560.079,-310.697C567.022,-302.728 575.413,-293.1 583.113,-284.264"/>
<polygon fill="black" stroke="black" points="583.211,-284.151 584.137,-277 591.095,-275.104 590.169,-282.256 583.211,-284.151"/>
</g>
<!-- blend/barrier.wrl -->
<g id="node26" class="node"><title>blend/barrier.wrl</title>
<ellipse fill="none" stroke="black" cx="70" cy="-185" rx="70.2909" ry="18"/>
<text text-anchor="middle" x="70" y="-181.3" font-family="Times New Roman,serif" font-size="14.00">blend/barrier.wrl</text>
</g>
<!-- wrl/barrier.wrl&#45;&gt;blend/barrier.wrl -->
<g id="edge6" class="edge"><title>wrl/barrier.wrl&#45;&gt;blend/barrier.wrl</title>
<path fill="none" stroke="black" d="M436.562,-241.229C433.34,-240.419 430.131,-239.665 427,-239 305.132,-213.112 271.783,-224.123 149,-203 142.921,-201.954 136.599,-200.766 130.298,-199.515"/>
<polygon fill="black" stroke="black" points="130.949,-196.076 120.451,-197.51 129.552,-202.935 130.949,-196.076"/>
</g>
<!-- wrl/barsquare.wrl -->
<g id="node7" class="node"><title>wrl/barsquare.wrl</title>
<polygon fill="none" stroke="black" points="311.25,-59 198.75,-59 198.75,-23 311.25,-23 311.25,-59"/>
<text text-anchor="middle" x="255" y="-37.3" font-family="Times New Roman,serif" font-size="14.00">wrl/barsquare.wrl</text>
</g>
<!-- wrl/bedroom.wrl -->
<g id="node8" class="node"><title>wrl/bedroom.wrl</title>
<polygon fill="none" stroke="black" points="1768,-347 1658,-347 1658,-311 1768,-311 1768,-347"/>
<text text-anchor="middle" x="1713" y="-325.3" font-family="Times New Roman,serif" font-size="14.00">wrl/bedroom.wrl</text>
</g>
<!-- wrl/ladyBugLods.wrl -->
<g id="node11" class="node"><title>wrl/ladyBugLods.wrl</title>
<polygon fill="none" stroke="black" points="1220,-275 1086,-275 1086,-239 1220,-239 1220,-275"/>
<text text-anchor="middle" x="1153" y="-253.3" font-family="Times New Roman,serif" font-size="14.00">wrl/ladyBugLods.wrl</text>
</g>
<!-- wrl/bedroom.wrl&#45;&gt;wrl/ladyBugLods.wrl -->
<g id="edge27" class="edge"><title>wrl/bedroom.wrl&#45;&gt;wrl/ladyBugLods.wrl</title>
<path fill="none" stroke="black" stroke-width="2" d="M1657.93,-323.971C1570.03,-317.105 1392.42,-301.443 1232.06,-275.398"/>
<polygon fill="black" stroke="black" points="1231.9,-275.371 1225.33,-278.344 1220.06,-273.424 1226.63,-270.451 1231.9,-275.371"/>
</g>
<!-- blend/apartment.wrl -->
<g id="node24" class="node"><title>blend/apartment.wrl</title>
<ellipse fill="none" stroke="black" cx="1321" cy="-257" rx="82.3139" ry="18"/>
<text text-anchor="middle" x="1321" y="-253.3" font-family="Times New Roman,serif" font-size="14.00">blend/apartment.wrl</text>
</g>
<!-- wrl/bedroom.wrl&#45;&gt;blend/apartment.wrl -->
<g id="edge11" class="edge"><title>wrl/bedroom.wrl&#45;&gt;blend/apartment.wrl</title>
<path fill="none" stroke="black" d="M1657.77,-318.452C1597.37,-307.97 1497.75,-290.559 1412,-275 1405.31,-273.785 1398.34,-272.508 1391.37,-271.221"/>
<polygon fill="black" stroke="black" points="1391.66,-267.716 1381.19,-269.336 1390.39,-274.599 1391.66,-267.716"/>
</g>
<!-- blend/balconyPlatform.wrl -->
<g id="node25" class="node"><title>blend/balconyPlatform.wrl</title>
<ellipse fill="none" stroke="black" cx="1528" cy="-257" rx="106.386" ry="18"/>
<text text-anchor="middle" x="1528" y="-253.3" font-family="Times New Roman,serif" font-size="14.00">blend/balconyPlatform.wrl</text>
</g>
<!-- wrl/bedroom.wrl&#45;&gt;blend/balconyPlatform.wrl -->
<g id="edge12" class="edge"><title>wrl/bedroom.wrl&#45;&gt;blend/balconyPlatform.wrl</title>
<path fill="none" stroke="black" d="M1667.74,-310.876C1640.86,-300.702 1606.69,-287.773 1578.87,-277.247"/>
<polygon fill="black" stroke="black" points="1579.9,-273.898 1569.31,-273.632 1577.43,-280.445 1579.9,-273.898"/>
</g>
<!-- blend/bed.wrl -->
<g id="node28" class="node"><title>blend/bed.wrl</title>
<ellipse fill="none" stroke="black" cx="1713" cy="-257" rx="60.1672" ry="18"/>
<text text-anchor="middle" x="1713" y="-253.3" font-family="Times New Roman,serif" font-size="14.00">blend/bed.wrl</text>
</g>
<!-- wrl/bedroom.wrl&#45;&gt;blend/bed.wrl -->
<g id="edge7" class="edge"><title>wrl/bedroom.wrl&#45;&gt;blend/bed.wrl</title>
<path fill="none" stroke="black" d="M1713,-310.697C1713,-302.983 1713,-293.712 1713,-285.112"/>
<polygon fill="black" stroke="black" points="1716.5,-285.104 1713,-275.104 1709.5,-285.104 1716.5,-285.104"/>
</g>
<!-- blend/glass.wrl -->
<g id="node33" class="node"><title>blend/glass.wrl</title>
<ellipse fill="none" stroke="black" cx="1856" cy="-257" rx="64.4914" ry="18"/>
<text text-anchor="middle" x="1856" y="-253.3" font-family="Times New Roman,serif" font-size="14.00">blend/glass.wrl</text>
</g>
<!-- wrl/bedroom.wrl&#45;&gt;blend/glass.wrl -->
<g id="edge10" class="edge"><title>wrl/bedroom.wrl&#45;&gt;blend/glass.wrl</title>
<path fill="none" stroke="black" d="M1747.98,-310.876C1768.58,-300.792 1794.71,-288.002 1816.11,-277.528"/>
<polygon fill="black" stroke="black" points="1817.82,-280.586 1825.26,-273.046 1814.74,-274.299 1817.82,-280.586"/>
</g>
<!-- blend/library.wrl -->
<g id="node38" class="node"><title>blend/library.wrl</title>
<ellipse fill="none" stroke="black" cx="2009" cy="-257" rx="69.3156" ry="18"/>
<text text-anchor="middle" x="2009" y="-253.3" font-family="Times New Roman,serif" font-size="14.00">blend/library.wrl</text>
</g>
<!-- wrl/bedroom.wrl&#45;&gt;blend/library.wrl -->
<g id="edge9" class="edge"><title>wrl/bedroom.wrl&#45;&gt;blend/library.wrl</title>
<path fill="none" stroke="black" d="M1768.13,-313.226C1771.13,-312.463 1774.1,-311.717 1777,-311 1834.73,-296.742 1900.89,-281.762 1947.74,-271.38"/>
<polygon fill="black" stroke="black" points="1948.73,-274.747 1957.73,-269.171 1947.21,-267.912 1948.73,-274.747"/>
</g>
<!-- blend/PlatformWithHole.wrl -->
<g id="node40" class="node"><title>blend/PlatformWithHole.wrl</title>
<ellipse fill="none" stroke="black" cx="2209" cy="-257" rx="112.16" ry="18"/>
<text text-anchor="middle" x="2209" y="-253.3" font-family="Times New Roman,serif" font-size="14.00">blend/PlatformWithHole.wrl</text>
</g>
<!-- wrl/bedroom.wrl&#45;&gt;blend/PlatformWithHole.wrl -->
<g id="edge13" class="edge"><title>wrl/bedroom.wrl&#45;&gt;blend/PlatformWithHole.wrl</title>
<path fill="none" stroke="black" d="M1768.04,-312.841C1771.06,-312.177 1774.06,-311.558 1777,-311 1913.27,-285.129 1949.41,-292.572 2087,-275 2097.05,-273.717 2107.55,-272.326 2118,-270.913"/>
<polygon fill="black" stroke="black" points="2118.55,-274.37 2127.99,-269.553 2117.61,-267.434 2118.55,-274.37"/>
</g>
<!-- blend/stair.wrl -->
<g id="node42" class="node"><title>blend/stair.wrl</title>
<ellipse fill="none" stroke="black" cx="2401" cy="-257" rx="61.6163" ry="18"/>
<text text-anchor="middle" x="2401" y="-253.3" font-family="Times New Roman,serif" font-size="14.00">blend/stair.wrl</text>
</g>
<!-- wrl/bedroom.wrl&#45;&gt;blend/stair.wrl -->
<g id="edge8" class="edge"><title>wrl/bedroom.wrl&#45;&gt;blend/stair.wrl</title>
<path fill="none" stroke="black" d="M1768.01,-312.66C1771.04,-312.043 1774.05,-311.483 1777,-311 2020.06,-271.197 2086.47,-311.809 2330,-275 2335.7,-274.138 2341.62,-273.046 2347.49,-271.833"/>
<polygon fill="black" stroke="black" points="2348.27,-275.245 2357.3,-269.695 2346.78,-268.406 2348.27,-275.245"/>
</g>
<!-- wrl/clock.wrl -->
<g id="node9" class="node"><title>wrl/clock.wrl</title>
<polygon fill="none" stroke="black" points="247.25,-203 158.75,-203 158.75,-167 247.25,-167 247.25,-203"/>
<text text-anchor="middle" x="203" y="-181.3" font-family="Times New Roman,serif" font-size="14.00">wrl/clock.wrl</text>
</g>
<!-- blend/ladybug.wrl -->
<g id="node36" class="node"><title>blend/ladybug.wrl</title>
<ellipse fill="none" stroke="black" cx="1153" cy="-185" rx="75.0904" ry="18"/>
<text text-anchor="middle" x="1153" y="-181.3" font-family="Times New Roman,serif" font-size="14.00">blend/ladybug.wrl</text>
</g>
<!-- wrl/ladyBugLods.wrl&#45;&gt;blend/ladybug.wrl -->
<g id="edge14" class="edge"><title>wrl/ladyBugLods.wrl&#45;&gt;blend/ladybug.wrl</title>
<path fill="none" stroke="black" d="M1153,-238.697C1153,-230.983 1153,-221.712 1153,-213.112"/>
<polygon fill="black" stroke="black" points="1156.5,-213.104 1153,-203.104 1149.5,-213.104 1156.5,-213.104"/>
</g>
<!-- blend/ladybug_lod2.wrl -->
<g id="node37" class="node"><title>blend/ladybug_lod2.wrl</title>
<ellipse fill="none" stroke="black" cx="1343" cy="-185" rx="96.2631" ry="18"/>
<text text-anchor="middle" x="1343" y="-181.3" font-family="Times New Roman,serif" font-size="14.00">blend/ladybug_lod2.wrl</text>
</g>
<!-- wrl/ladyBugLods.wrl&#45;&gt;blend/ladybug_lod2.wrl -->
<g id="edge15" class="edge"><title>wrl/ladyBugLods.wrl&#45;&gt;blend/ladybug_lod2.wrl</title>
<path fill="none" stroke="black" d="M1199.48,-238.876C1227.51,-228.549 1263.25,-215.382 1292.05,-204.772"/>
<polygon fill="black" stroke="black" points="1293.35,-208.021 1301.53,-201.279 1290.93,-201.452 1293.35,-208.021"/>
</g>
<!-- wrl/lighthouse.wrl&#45;&gt;wrl/balcony.wrl -->
<g id="edge24" class="edge"><title>wrl/lighthouse.wrl&#45;&gt;wrl/balcony.wrl</title>
<path fill="none" stroke="black" stroke-width="2" d="M1655.48,-396.553C1458.73,-384.761 813.507,-346.092 608.279,-333.792"/>
<polygon fill="black" stroke="black" points="608.238,-333.79 602.01,-337.424 596.26,-333.072 602.488,-329.438 608.238,-333.79"/>
</g>
<!-- wrl/lighthouse.wrl&#45;&gt;wrl/bedroom.wrl -->
<g id="edge25" class="edge"><title>wrl/lighthouse.wrl&#45;&gt;wrl/bedroom.wrl</title>
<path fill="none" stroke="black" stroke-width="2" d="M1713,-382.697C1713,-375.576 1713,-367.129 1713,-359.108"/>
<polygon fill="black" stroke="black" points="1713,-359.104 1709,-353.104 1713,-347.104 1717,-353.104 1713,-359.104"/>
</g>
<!-- wrl/lighthouse&#45;body.wrl -->
<g id="node13" class="node"><title>wrl/lighthouse&#45;body.wrl</title>
<polygon fill="none" stroke="black" points="1935.25,-347 1786.75,-347 1786.75,-311 1935.25,-311 1935.25,-347"/>
<text text-anchor="middle" x="1861" y="-325.3" font-family="Times New Roman,serif" font-size="14.00">wrl/lighthouse&#45;body.wrl</text>
</g>
<!-- wrl/lighthouse.wrl&#45;&gt;wrl/lighthouse&#45;body.wrl -->
<g id="edge23" class="edge"><title>wrl/lighthouse.wrl&#45;&gt;wrl/lighthouse&#45;body.wrl</title>
<path fill="none" stroke="black" stroke-width="2" d="M1749.2,-382.876C1768.72,-373.647 1793.02,-362.151 1813.98,-352.238"/>
<polygon fill="black" stroke="black" points="1814.06,-352.199 1817.78,-346.018 1824.91,-347.068 1821.2,-353.25 1814.06,-352.199"/>
</g>
<!-- wrl/lightroom.wrl&#45;&gt;wrl/clock.wrl -->
<g id="edge19" class="edge"><title>wrl/lightroom.wrl&#45;&gt;wrl/clock.wrl</title>
<path fill="none" stroke="black" d="M549.939,-241.049C546.585,-240.314 543.254,-239.623 540,-239 418.636,-215.746 382.668,-229.408 257.31,-202.807"/>
<polygon fill="black" stroke="black" points="257.842,-199.341 247.327,-200.645 256.36,-206.182 257.842,-199.341"/>
</g>
<!-- wrl/lightroom&#45;cage.wrl -->
<g id="node15" class="node"><title>wrl/lightroom&#45;cage.wrl</title>
<polygon fill="none" stroke="black" points="408,-203 266,-203 266,-167 408,-167 408,-203"/>
<text text-anchor="middle" x="337" y="-181.3" font-family="Times New Roman,serif" font-size="14.00">wrl/lightroom&#45;cage.wrl</text>
</g>
<!-- wrl/lightroom.wrl&#45;&gt;wrl/lightroom&#45;cage.wrl -->
<g id="edge28" class="edge"><title>wrl/lightroom.wrl&#45;&gt;wrl/lightroom&#45;cage.wrl</title>
<path fill="none" stroke="black" stroke-width="2" d="M549.936,-241.411C510.585,-231.171 457.464,-217.347 414.124,-206.069"/>
<polygon fill="black" stroke="black" points="414.081,-206.058 407.267,-208.418 402.468,-203.036 409.282,-200.676 414.081,-206.058"/>
</g>
<!-- wrl/lightroom&#45;chandelier.wrl -->
<g id="node17" class="node"><title>wrl/lightroom&#45;chandelier.wrl</title>
<polygon fill="none" stroke="black" points="599.25,-203 426.75,-203 426.75,-167 599.25,-167 599.25,-203"/>
<text text-anchor="middle" x="513" y="-181.3" font-family="Times New Roman,serif" font-size="14.00">wrl/lightroom&#45;chandelier.wrl</text>
</g>
<!-- wrl/lightroom.wrl&#45;&gt;wrl/lightroom&#45;chandelier.wrl -->
<g id="edge16" class="edge"><title>wrl/lightroom.wrl&#45;&gt;wrl/lightroom&#45;chandelier.wrl</title>
<path fill="none" stroke="black" d="M583.011,-238.697C571.186,-229.796 556.608,-218.823 543.821,-209.199"/>
<polygon fill="black" stroke="black" points="545.819,-206.322 535.724,-203.104 541.609,-211.915 545.819,-206.322"/>
</g>
<!-- wrl/lightroom&#45;masonry.wrl -->
<g id="node18" class="node"><title>wrl/lightroom&#45;masonry.wrl</title>
<polygon fill="none" stroke="black" points="782,-203 618,-203 618,-167 782,-167 782,-203"/>
<text text-anchor="middle" x="700" y="-181.3" font-family="Times New Roman,serif" font-size="14.00">wrl/lightroom&#45;masonry.wrl</text>
</g>
<!-- wrl/lightroom.wrl&#45;&gt;wrl/lightroom&#45;masonry.wrl -->
<g id="edge17" class="edge"><title>wrl/lightroom.wrl&#45;&gt;wrl/lightroom&#45;masonry.wrl</title>
<path fill="none" stroke="black" d="M629.236,-238.697C641.188,-229.796 655.923,-218.823 668.847,-209.199"/>
<polygon fill="black" stroke="black" points="671.101,-211.884 677.031,-203.104 666.92,-206.27 671.101,-211.884"/>
</g>
<!-- wrl/lightroom&#45;roof.wrl -->
<g id="node19" class="node"><title>wrl/lightroom&#45;roof.wrl</title>
<polygon fill="none" stroke="black" points="940,-203 800,-203 800,-167 940,-167 940,-203"/>
<text text-anchor="middle" x="870" y="-181.3" font-family="Times New Roman,serif" font-size="14.00">wrl/lightroom&#45;roof.wrl</text>
</g>
<!-- wrl/lightroom.wrl&#45;&gt;wrl/lightroom&#45;roof.wrl -->
<g id="edge18" class="edge"><title>wrl/lightroom.wrl&#45;&gt;wrl/lightroom&#45;roof.wrl</title>
<path fill="none" stroke="black" d="M662.311,-241.069C701.227,-230.751 753.399,-216.917 795.716,-205.696"/>
<polygon fill="black" stroke="black" points="796.646,-209.071 805.415,-203.125 794.852,-202.305 796.646,-209.071"/>
</g>
<!-- wrl/winding.wrl -->
<g id="node23" class="node"><title>wrl/winding.wrl</title>
<polygon fill="none" stroke="black" points="1060,-203 958,-203 958,-167 1060,-167 1060,-203"/>
<text text-anchor="middle" x="1009" y="-181.3" font-family="Times New Roman,serif" font-size="14.00">wrl/winding.wrl</text>
</g>
<!-- wrl/lightroom.wrl&#45;&gt;wrl/winding.wrl -->
<g id="edge20" class="edge"><title>wrl/lightroom.wrl&#45;&gt;wrl/winding.wrl</title>
<path fill="none" stroke="black" d="M662.235,-249.464C728.435,-241.29 841.794,-225.799 947.812,-203.122"/>
<polygon fill="black" stroke="black" points="948.685,-206.514 957.718,-200.977 947.203,-199.673 948.685,-206.514"/>
</g>
<!-- wrl/lightroom&#45;window.wrl -->
<g id="node20" class="node"><title>wrl/lightroom&#45;window.wrl</title>
<polygon fill="none" stroke="black" points="417.25,-131 256.75,-131 256.75,-95 417.25,-95 417.25,-131"/>
<text text-anchor="middle" x="337" y="-109.3" font-family="Times New Roman,serif" font-size="14.00">wrl/lightroom&#45;window.wrl</text>
</g>
<!-- wrl/lightroom&#45;cage.wrl&#45;&gt;wrl/lightroom&#45;window.wrl -->
<g id="edge29" class="edge"><title>wrl/lightroom&#45;cage.wrl&#45;&gt;wrl/lightroom&#45;window.wrl</title>
<path fill="none" stroke="black" stroke-width="2" d="M337,-166.697C337,-159.576 337,-151.129 337,-143.108"/>
<polygon fill="black" stroke="black" points="337,-143.104 333,-137.104 337,-131.104 341,-137.104 337,-143.104"/>
</g>
<!-- wrl/lightroom&#45;glass&#45;panel.wrl -->
<g id="node16" class="node"><title>wrl/lightroom&#45;glass&#45;panel.wrl</title>
<polygon fill="none" stroke="black" points="508,-59 330,-59 330,-23 508,-23 508,-59"/>
<text text-anchor="middle" x="419" y="-37.3" font-family="Times New Roman,serif" font-size="14.00">wrl/lightroom&#45;glass&#45;panel.wrl</text>
</g>
<!-- wrl/reflector.wrl -->
<g id="node21" class="node"><title>wrl/reflector.wrl</title>
<polygon fill="none" stroke="black" points="565.25,-131 460.75,-131 460.75,-95 565.25,-95 565.25,-131"/>
<text text-anchor="middle" x="513" y="-109.3" font-family="Times New Roman,serif" font-size="14.00">wrl/reflector.wrl</text>
</g>
<!-- wrl/lightroom&#45;chandelier.wrl&#45;&gt;wrl/reflector.wrl -->
<g id="edge21" class="edge"><title>wrl/lightroom&#45;chandelier.wrl&#45;&gt;wrl/reflector.wrl</title>
<path fill="none" stroke="black" d="M513,-166.697C513,-158.983 513,-149.712 513,-141.112"/>
<polygon fill="black" stroke="black" points="516.5,-141.104 513,-131.104 509.5,-141.104 516.5,-141.104"/>
</g>
<!-- wrl/lightroom&#45;window.wrl&#45;&gt;wrl/barsquare.wrl -->
<g id="edge31" class="edge"><title>wrl/lightroom&#45;window.wrl&#45;&gt;wrl/barsquare.wrl</title>
<path fill="none" stroke="black" stroke-width="2" d="M316.73,-94.6966C306.999,-86.3893 295.153,-76.2771 284.451,-67.1407"/>
<polygon fill="black" stroke="black" points="284.163,-66.8955 277.003,-66.0422 275.037,-59.1043 282.197,-59.9577 284.163,-66.8955"/>
</g>
<!-- wrl/lightroom&#45;window.wrl&#45;&gt;wrl/lightroom&#45;glass&#45;panel.wrl -->
<g id="edge30" class="edge"><title>wrl/lightroom&#45;window.wrl&#45;&gt;wrl/lightroom&#45;glass&#45;panel.wrl</title>
<path fill="none" stroke="black" stroke-width="2" d="M357.27,-94.6966C367.001,-86.3893 378.847,-76.2771 389.549,-67.1407"/>
<polygon fill="black" stroke="black" points="389.837,-66.8955 391.803,-59.9577 398.963,-59.1043 396.997,-66.0422 389.837,-66.8955"/>
</g>
<!-- wrl/sea.wrl -->
<g id="node22" class="node"><title>wrl/sea.wrl</title>
<polygon fill="none" stroke="black" points="1898.25,-635 1821.75,-635 1821.75,-599 1898.25,-599 1898.25,-635"/>
<text text-anchor="middle" x="1860" y="-613.3" font-family="Times New Roman,serif" font-size="14.00">wrl/sea.wrl</text>
</g>
<!-- blend/barrier_lod2.wrl -->
<g id="node27" class="node"><title>blend/barrier_lod2.wrl</title>
<ellipse fill="none" stroke="black" cx="2007" cy="-617" rx="90.4879" ry="18"/>
<text text-anchor="middle" x="2007" y="-613.3" font-family="Times New Roman,serif" font-size="14.00">blend/barrier_lod2.wrl</text>
</g>
<!-- blend/blenderIndex.wrl -->
<g id="node29" class="node"><title>blend/blenderIndex.wrl</title>
<ellipse fill="none" stroke="black" cx="2210" cy="-617" rx="94.3628" ry="18"/>
<text text-anchor="middle" x="2210" y="-613.3" font-family="Times New Roman,serif" font-size="14.00">blend/blenderIndex.wrl</text>
</g>
<!-- blend/circled.wrl -->
<g id="node30" class="node"><title>blend/circled.wrl</title>
<ellipse fill="none" stroke="black" cx="2394" cy="-617" rx="71.2405" ry="18"/>
<text text-anchor="middle" x="2394" y="-613.3" font-family="Times New Roman,serif" font-size="14.00">blend/circled.wrl</text>
</g>
<!-- blend/entry.wrl -->
<g id="node31" class="node"><title>blend/entry.wrl</title>
<ellipse fill="none" stroke="black" cx="2548" cy="-617" rx="64.4914" ry="18"/>
<text text-anchor="middle" x="2548" y="-613.3" font-family="Times New Roman,serif" font-size="14.00">blend/entry.wrl</text>
</g>
<!-- blend/EntryTest.wrl -->
<g id="node32" class="node"><title>blend/EntryTest.wrl</title>
<ellipse fill="none" stroke="black" cx="2714" cy="-617" rx="82.3139" ry="18"/>
<text text-anchor="middle" x="2714" y="-613.3" font-family="Times New Roman,serif" font-size="14.00">blend/EntryTest.wrl</text>
</g>
<!-- blend/glass_lod2.wrl -->
<g id="node34" class="node"><title>blend/glass_lod2.wrl</title>
<ellipse fill="none" stroke="black" cx="2900" cy="-617" rx="85.19" ry="18"/>
<text text-anchor="middle" x="2900" y="-613.3" font-family="Times New Roman,serif" font-size="14.00">blend/glass_lod2.wrl</text>
</g>
<!-- blend/innerStair.wrl -->
<g id="node35" class="node"><title>blend/innerStair.wrl</title>
<ellipse fill="none" stroke="black" cx="3085" cy="-617" rx="81.3646" ry="18"/>
<text text-anchor="middle" x="3085" y="-613.3" font-family="Times New Roman,serif" font-size="14.00">blend/innerStair.wrl</text>
</g>
<!-- blend/LibraryTest.wrl -->
<g id="node39" class="node"><title>blend/LibraryTest.wrl</title>
<ellipse fill="none" stroke="black" cx="3273" cy="-617" rx="89.0632" ry="18"/>
<text text-anchor="middle" x="3273" y="-613.3" font-family="Times New Roman,serif" font-size="14.00">blend/LibraryTest.wrl</text>
</g>
<!-- blend/smeaton.wrl -->
<g id="node41" class="node"><title>blend/smeaton.wrl</title>
<ellipse fill="none" stroke="black" cx="3457" cy="-617" rx="77.0154" ry="18"/>
<text text-anchor="middle" x="3457" y="-613.3" font-family="Times New Roman,serif" font-size="14.00">blend/smeaton.wrl</text>
</g>
</g>
</svg>
